<svg width="164" height="164" viewBox="0 0 164 164" fill="none" xmlns="http://www.w3.org/2000/svg">
<g clip-path="url(#clip0)">
<path d="M1.80042 83.8004C1.80042 39.5653 37.613 3.69476 81.8262 3.60114C126.113 3.50719 161.932 39.0212 162.198 83.3074C162.347 107.987 151.347 130.102 133.94 144.911C132.106 146.471 129.764 147.305 127.357 147.305H36.883C34.2659 147.305 31.7414 146.357 29.7567 144.651C12.6411 129.943 1.80042 108.138 1.80042 83.8004Z" fill="#528ED7"/>
<path d="M162.2 83.8004C162.2 84.2845 162.195 84.7674 162.187 85.2492C156.199 102.261 143.366 116.797 126.851 123.781C119.195 127.018 110.639 127.992 101.804 127.992C66.4603 127.992 37.8084 99.3401 37.8084 63.996C37.8084 36.1023 55.6543 12.3769 80.5512 3.61389C81.0331 3.60538 81.5159 3.6008 82 3.6008C126.293 3.6008 162.2 39.5073 162.2 83.8004Z" fill="#63BCFA"/>
<path d="M123.246 58.4187V61.6921C123.246 83.1084 105.884 100.47 84.4675 100.47H79.5321C58.1159 100.47 40.7542 83.1087 40.7542 61.6921V58.4187C40.7545 37.0021 58.1159 19.6407 79.5325 19.6407H84.4678C105.884 19.6407 123.246 37.0021 123.246 58.4187Z" fill="#7D402D"/>
<path d="M38.1335 137.53C33.4878 134.489 32.7994 127.867 36.8444 124.063C40.9447 120.207 46.466 117.844 52.5389 117.844H111.461C121.178 117.844 129.482 123.893 132.814 132.43C118.981 143.772 101.285 150.579 82 150.579C65.8092 150.579 50.7389 145.781 38.1335 137.53Z" fill="#A95947"/>
<path d="M127.907 124.802C131.374 128.375 130.793 134.228 126.66 137.004C113.895 145.577 98.5319 150.579 82 150.579C66.4157 150.579 51.8698 146.134 39.5607 138.443C40.7218 126.875 50.4858 117.844 62.3593 117.844H72.1796V110.779C72.1796 110.282 71.8513 109.851 71.3773 109.705C56.6756 105.172 45.992 91.4786 45.992 75.2894V62.1956C45.992 42.3091 62.1135 26.1876 82 26.1876C101.887 26.1876 118.008 42.3091 118.008 62.1956V68.7425C122.528 68.7425 126.192 72.4065 126.192 76.9261V80.1996C126.192 84.7193 122.528 88.3832 118.008 88.3832C117.2 88.3832 116.419 88.266 115.682 88.048C111.671 98.6321 102.815 106.832 91.8204 109.942V117.844H111.461C117.913 117.844 123.742 120.511 127.907 124.802Z" fill="#B76C54"/>
<path d="M118.008 62.1956V75.2894C118.008 91.916 106.739 105.91 91.4223 110.052C88.4687 110.851 85.3517 110.851 82.3981 110.052C67.0812 105.91 55.8124 91.916 55.8124 75.2894V62.1956C55.8124 43.9746 69.3465 28.9148 86.9102 26.5199C104.474 28.9148 118.008 43.9746 118.008 62.1956Z" fill="#C68978"/>
<path d="M71.3613 64.6507C71.3613 67.3624 69.1629 69.5609 66.4511 69.5609C63.7394 69.5609 61.541 67.3624 61.541 64.6507C61.541 61.939 63.7394 59.7405 66.4511 59.7405C69.1629 59.7405 71.3613 61.939 71.3613 64.6507ZM97.5489 59.7405C94.8372 59.7405 92.6388 61.939 92.6388 64.6507C92.6388 67.3624 94.8372 69.5609 97.5489 69.5609C100.261 69.5609 102.459 67.3624 102.459 64.6507C102.459 61.939 100.261 59.7405 97.5489 59.7405Z" fill="#002C5D"/>
<path d="M72.1796 62.1956C72.1796 63.5515 71.0804 64.6507 69.7246 64.6507C68.3687 64.6507 67.2695 63.5515 67.2695 62.1956C67.2695 60.8397 68.3687 59.7405 69.7246 59.7405C71.0804 59.7405 72.1796 60.8397 72.1796 62.1956ZM100.822 59.7405C99.4665 59.7405 98.3673 60.8397 98.3673 62.1956C98.3673 63.5515 99.4665 64.6507 100.822 64.6507C102.178 64.6507 103.277 63.5515 103.277 62.1956C103.277 60.8397 102.178 59.7405 100.822 59.7405Z" fill="#FFF5F5"/>
<path d="M82 98.2036C76.5763 98.2036 72.1797 93.807 72.1797 88.3832C72.1797 87.0274 73.2789 85.9281 74.6348 85.9281H89.3653C90.7212 85.9281 91.8204 87.0274 91.8204 88.3832C91.8204 93.807 87.4238 98.2036 82 98.2036Z" fill="#FFF5F5"/>
<path d="M84.4551 97.8942C83.6705 98.0962 82.8479 98.2036 82.0001 98.2036C76.5766 98.2036 72.1797 93.807 72.1797 88.3832C72.1797 87.0274 73.2789 85.9281 74.6348 85.9281H79.545C78.1891 85.9281 77.0899 87.0274 77.0899 88.3832C77.0899 92.9592 80.2196 96.8039 84.4551 97.8942Z" fill="#E3F0FB"/>
<path d="M77.2535 78.1475C76.2947 77.1884 76.2947 75.6341 77.2535 74.6753C78.2123 73.7169 79.7669 73.7169 80.7253 74.6753C81.0664 75.0164 81.5188 75.2043 81.9997 75.2043C82.4806 75.2043 82.933 75.0164 83.2741 74.6753C84.2329 73.7169 85.7874 73.7169 86.7459 74.6753C87.7047 75.6345 87.7047 77.1887 86.7459 78.1475C85.4774 79.4159 83.7919 80.1145 81.9994 80.1145C80.2068 80.1145 78.522 79.4159 77.2535 78.1475Z" fill="#A95947"/>
<path d="M123.244 58.0802C111.649 60.6279 99.0384 57.3931 90.0207 48.3757C90.0207 48.3757 76.7213 34.5225 75.2132 31.9731C67.4777 40.1862 62.652 51.8116 62.652 64.7008V81.0864C62.652 93.2577 66.9549 104.302 73.9477 112.41C74.3258 112.848 73.9948 113.53 73.4167 113.493C52.2876 112.167 35.5183 92.5327 35.5183 68.5045V64.7005C35.5183 44.023 47.9375 26.5984 64.8665 21.2964C64.3057 20.043 64.0095 18.4721 63.9964 16.5041C63.9964 16.4589 63.996 16.4134 63.996 16.3673C63.996 7.32795 72.0566 0 82 0C91.9435 0 100.004 7.32795 100.004 16.3673C100.004 18.8878 99.3772 20.7661 98.2576 22.1646C112.766 27.6862 123.103 41.6668 123.244 58.0802Z" fill="#7D402D"/>
<path d="M86.886 22.4739C86.6594 22.5164 86.4329 22.5603 86.2061 22.6048C72.8356 25.2416 60.9563 32.9856 53.2771 44.2437C49.1061 50.3585 45.5311 57.6547 45.5311 64.7008V68.5049C45.5311 88.4052 57.034 105.293 72.9902 111.26C73.3041 111.65 73.6239 112.034 73.9496 112.412C74.3274 112.85 73.9951 113.53 73.418 113.494C52.2885 112.168 35.5186 92.533 35.5186 68.5049V64.7008C35.5186 44.0234 47.9378 26.5988 64.8668 21.2968C64.2932 20.0145 63.996 18.3994 63.996 16.3673C63.996 7.32795 72.0566 0 82 0C83.7372 0 85.4168 0.223904 87.0058 0.641269C79.4984 2.61287 74.0085 8.90707 74.0085 16.3673C74.0085 17.5883 74.1159 18.6584 74.3261 19.5962C78.4388 19.0973 82.5755 18.9785 86.6823 19.2319C88.6179 19.3513 88.7918 22.1154 86.886 22.4739Z" fill="#533022"/>
<path d="M134.375 140.758V144.538C120.324 156.666 102.018 164 82 164C61.9819 164 43.6764 156.666 29.6248 144.538V140.758C29.6248 134.027 32.5273 127.973 37.1494 123.781C49.9513 132.433 65.3856 137.485 82 137.485C98.6144 137.485 114.049 132.433 126.851 123.781C131.473 127.973 134.375 134.027 134.375 140.758Z" fill="#D98800"/>
<path d="M134.375 140.758V144.538C120.324 156.666 102.018 164 82 164C66.367 164 51.7788 159.527 39.4451 151.791V140.758C39.4451 135.896 40.9594 131.388 43.5419 127.68C54.96 133.931 68.0649 137.485 82 137.485C98.6144 137.485 114.049 132.433 126.851 123.781C131.473 127.973 134.375 134.027 134.375 140.758Z" fill="#FCB30B"/>
<path d="M116.371 147.305V156.282C114.239 157.295 112.055 158.217 109.824 159.042V147.305C109.824 145.497 111.29 144.032 113.098 144.032C114.906 144.032 116.371 145.497 116.371 147.305ZM50.9022 144.032C49.0943 144.032 47.6288 145.497 47.6288 147.305V156.282C49.7611 157.295 51.9448 158.217 54.1757 159.042V147.305C54.1757 145.497 52.7102 144.032 50.9022 144.032Z" fill="#D98800"/>
<path d="M118.065 113.791H114.023C112.79 113.791 111.826 112.73 111.943 111.504L113.964 90.2743C114.066 89.2019 114.967 88.3832 116.044 88.3832C117.121 88.3832 118.021 89.2023 118.123 90.2743L120.144 111.504C120.261 112.73 119.297 113.791 118.065 113.791Z" fill="#463B83"/>
<path d="M119.317 88.3832C119.317 90.1912 117.852 91.6567 116.044 91.6567C114.236 91.6567 112.771 90.1912 112.771 88.3832C112.771 86.5753 114.236 85.1098 116.044 85.1098C117.852 85.1098 119.317 86.5753 119.317 88.3832Z" fill="#002C5D"/>
<path d="M139.847 74.3991L137.574 67.6741C137.444 67.2872 137.14 66.9834 136.753 66.8528L130.028 64.5807C128.841 64.1797 128.841 62.5007 130.028 62.0997L136.753 59.8276C137.14 59.697 137.444 59.3932 137.574 59.0063L139.847 52.2813C140.248 51.0944 141.927 51.0944 142.327 52.2813L144.6 59.0063C144.73 59.3932 145.034 59.697 145.421 59.8276L152.146 62.0997C153.333 62.5007 153.333 64.1797 152.146 64.5807L145.421 66.8528C145.034 66.9834 144.73 67.2872 144.6 67.6741L142.327 74.3991C141.927 75.5863 140.248 75.5863 139.847 74.3991ZM28.5017 113.594L30.1787 108.63C30.2752 108.345 30.4995 108.121 30.7849 108.024L35.7488 106.347C36.6251 106.051 36.6251 104.812 35.7488 104.516L30.7849 102.839C30.4995 102.742 30.2752 102.518 30.1787 102.233L28.5017 97.2687C28.2058 96.3924 26.9664 96.3924 26.6705 97.2687L24.9935 102.233C24.8969 102.518 24.6727 102.742 24.3873 102.839L19.4234 104.516C18.5471 104.812 18.5471 106.051 19.4234 106.347L24.3873 108.024C24.6727 108.121 24.8969 108.345 24.9935 108.63L26.6705 113.594C26.9667 114.47 28.2058 114.47 28.5017 113.594ZM120.765 45.4045L121.846 42.202C121.909 42.0177 122.053 41.873 122.238 41.8109L125.44 40.729C126.005 40.5381 126.005 39.7384 125.44 39.5476L122.238 38.4657C122.053 38.4035 121.909 38.2588 121.846 38.0745L120.765 34.8721C120.574 34.3068 119.774 34.3068 119.583 34.8721L118.501 38.0745C118.439 38.2588 118.294 38.4035 118.11 38.4657L114.908 39.5476C114.342 39.7384 114.342 40.5381 114.908 40.729L118.11 41.8109C118.294 41.873 118.439 42.0177 118.501 42.202L119.583 45.4045C119.774 45.9698 120.574 45.9698 120.765 45.4045Z" fill="#FFF5F5"/>
</g>
<defs>
<clipPath id="clip0">
<rect width="164" height="164" fill="white"/>
</clipPath>
</defs>
</svg>
